# xmcd CD database file
#
# Track frame offsets:
#	150
#	16193
#	35763
#	50798
#	63516
#	86455
#	103913
#	116591
#	135914
#	159705
#	175219
#	197106
#	213668
#	227431
#	243835
#	255321
#	269760
#
# Disc length: 3978 seconds
#
# Revision: 1
# Processed by: cddbd v1.5.2PL0 Copyright (c) Steve Scherf et al.
# Submitted via: CDValet v3.40 - Copyright (c) 1996 - 1998 Greg Leichner
#
DISCID=ef0f8811
DTITLE=Various Artist - Voices Of A Grateful Nation Volume Two
DTITLE=Various Artist - Texas Country and Americana
DYEAR=1900
DGENRE=
TTITLE0=The Boy I Left Behind - Deryl Dodd and Jon Christopher Da
TTITLE0=vis
TTITLE1=Mr. Soldier - Brandon Rhyder
TTITLE2=Shipping Out To Iraq Blues - Jesse Dayton and Johnny Bush
TTITLE3=Robe Of White - Charlie Louvin and Brennan Leigh
TTITLE4=Soldier's Prayer - Mike Cross and Robyn Ludwick
TTITLE5=Hey Soldier - James Hand and Lisa Hayes
TTITLE6=Preacher - Guthrie Kennard
TTITLE7=Motherless Children - Terri Hendrix
TTITLE8=Soldiers In The Alley - Walt and Tina Wilkins
TTITLE9=Till Then - Ray Benson
TTITLE10=The Great Divide - Will Callery
TTITLE11=West Texas - Davin James and Gary P. Nunn
TTITLE12=Home Again - Jeff Plankenhorn and Michael O'Connor
TTITLE13=Fences - Mark Jungers and Susan Gibson
TTITLE14=Ten Thousand Miles Away - Tom Faulkner
TTITLE15=Ragged Old Flag - R.B. Lindsay and Mickey Raphael
TTITLE16=Soldier's Poem - Michael Martin Murphey and The Rio Gran
TTITLE16=de Band
EXTD=
EXTT0=
EXTT1=
EXTT2=
EXTT3=
EXTT4=
EXTT5=
EXTT6=
EXTT7=
EXTT8=
EXTT9=
EXTT10=
EXTT11=
EXTT12=
EXTT13=
EXTT14=
EXTT15=
EXTT16=
PLAYORDER=
